<?xml version="1.0" encoding="utf-8"?>
<!-- Generator: Adobe Illustrator 23.0.1, SVG Export Plug-In . SVG Version: 6.00 Build 0)  -->
<svg version="1.1" id="Calque_1" xmlns="http://www.w3.org/2000/svg" xmlns:xlink="http://www.w3.org/1999/xlink" x="0px" y="0px"
	 viewBox="0 0 300 300" style="enable-background:new 0 0 300 300;" xml:space="preserve">
<style type="text/css">
	.st0{fill:#114D74;}
</style>
<path class="st0" d="M150,6C70.5,6,6,70.5,6,150s64.5,144,144,144s144-64.5,144-144S229.5,6,150,6z M174.6,213.3L153,234.9
	c-0.9,0.9-2.1,1.2-3.3,1.2c-1.2,0-2.4-0.3-3.3-1.2l-21.6-21.6c-1.8-1.8-1.8-4.5,0-6.3c1.8-1.8,4.5-1.8,6.3,0l13.8,13.8v-70.5
	c0-2.4,2.1-4.5,4.5-4.5s4.5,2.1,4.5,4.5v70.5l13.8-13.8c1.8-1.8,4.5-1.8,6.3,0C175.8,208.8,176.4,211.5,174.6,213.3z M202.5,183.3
	H174c-2.4,0-4.5-2.1-4.5-4.5c0-2.4,2.1-4.5,4.5-4.5h28.5c13.2,0,24-10.5,24-23.4s-10.8-23.4-24-23.4c-2.4,0-5.1,0.6-7.8,1.5
	c-1.2,0.3-2.7,0.3-3.6-0.3c-0.9-0.6-1.8-1.8-2.1-3c-2.7-14.1-14.1-24.6-27-24.6c-2.1,0-3.9,0.3-6,0.9c-1.5,0.3-3,0-4.2-1.2
	c-6.9-6.3-15.6-9.9-24.6-9.9c-18.9,0-36.6,17.1-37.8,36.6c0,1.5-1.2,3-2.7,3.9c-8.1,3.6-13.2,11.7-13.2,20.4
	c0,12.3,10.2,22.5,22.5,22.5h30c2.4,0,4.5,2.1,4.5,4.5c0,2.4-2.1,4.5-4.5,4.5H96c-17.4,0-31.5-14.1-31.5-31.5
	c0-11.4,6.3-21.9,15.9-27.3c3-23.1,23.7-42.3,46.5-42.3c10.5,0,20.7,3.9,28.8,10.8c18-3.3,34.8,8.7,40.5,26.7c2.1-0.3,3.9-0.6,6-0.6
	c18.3,0,33,14.4,33,32.4S220.8,183.3,202.5,183.3z"/>
</svg>
