<?xml version="1.0" encoding="utf-8"?>
<!-- Generator: Adobe Illustrator 23.0.1, SVG Export Plug-In . SVG Version: 6.00 Build 0)  -->
<svg version="1.1" xmlns="http://www.w3.org/2000/svg" xmlns:xlink="http://www.w3.org/1999/xlink" x="0px" y="0px"
	 viewBox="0 0 300 300" style="enable-background:new 0 0 300 300;" xml:space="preserve">
<style type="text/css">
	.st0{display:none;fill:#D1D844;}
	.st1{display:none;fill:#45D64F;}
	.st2{display:none;fill:#D14747;}
	.st3{display:none;fill:#DB6AC6;}
	.st4{display:none;fill:#49ABCE;}
	.st5{fill:#CC874A;}
	.st6{fill:#114D74;}
</style>
<g id="Calque_2">
	<circle class="st0" cx="55.8" cy="23" r="13.5"/>
	<circle class="st1" cx="248.2" cy="23" r="13.5"/>
	<circle class="st2" cx="248.2" cy="276.3" r="13.5"/>
	<circle class="st3" cx="55.9" cy="276.3" r="13.5"/>
	<rect x="257.5" y="139.1" class="st4" width="35.8" height="34.1"/>
	<rect x="6.6" y="139.1" class="st5" width="35.8" height="34.1"/>
</g>
<g id="Calque_1">
	<g>
		<path class="st6" d="M134.5,138.2c2.7,0,4.5-1.8,4.5-4.5c0-2.7-1.8-4.5-4.5-4.5l0,0c-2.7,0-4.5,1.8-4.5,4.5
			C130,136.4,132.3,138.2,134.5,138.2z"/>
		<path class="st6" d="M134.5,172.3c2.7,0,4.5-1.8,4.5-4.5s-1.8-4.5-4.5-4.5l0,0c-2.7,0-4.5,1.8-4.5,4.5
			C130,170,132.3,172.3,134.5,172.3z"/>
		<path class="st6" d="M134.5,200L134.5,200c-2.7,0-4.5,1.8-4.5,4.5s2.3,4.5,4.5,4.5c2.3,0,4.5-1.8,4.5-4.5S137.3,200,134.5,200z"/>
		<path class="st6" d="M152.3,138.2c2.7,0,4.5-1.8,4.5-4.5c0-2.7-1.8-4.5-4.5-4.5l0,0c-2.7,0-4.5,1.8-4.5,4.5
			C147.7,136.4,149.5,138.2,152.3,138.2z"/>
		<path class="st6" d="M169.5,138.2c2.7,0,4.5-1.8,4.5-4.5c0-2.7-1.8-4.5-4.5-4.5l0,0c-2.7,0-4.5,1.8-4.5,4.5
			C165,136.4,167.3,138.2,169.5,138.2z"/>
		<path class="st6" d="M152.3,172.3c2.7,0,4.5-1.8,4.5-4.5s-1.8-4.5-4.5-4.5l0,0c-2.7,0-4.5,1.8-4.5,4.5
			C147.7,170,149.5,172.3,152.3,172.3z"/>
		<path class="st6" d="M169.5,172.3c2.7,0,4.5-1.8,4.5-4.5s-1.8-4.5-4.5-4.5l0,0c-2.7,0-4.5,1.8-4.5,4.5
			C165,170,167.3,172.3,169.5,172.3z"/>
		<path class="st6" d="M152.3,200L152.3,200c-2.7,0-4.5,1.8-4.5,4.5s2.3,4.5,4.5,4.5c2.3,0,4.5-1.8,4.5-4.5S154.5,200,152.3,200z"/>
		<g>
			<path class="st6" d="M169.5,200L169.5,200c-2.7,0-4.5,1.8-4.5,4.5s2.3,4.5,4.5,4.5c2.7,0,4.5-1.8,4.5-4.5S172.3,200,169.5,200z"
				/>
		</g>
		<path class="st6" d="M6.8,177.3h35.5c2.7,0,4.5-1.8,4.5-4.5v-11.8h56.8c0,7.7,0,22.7,0,22.3H55.9c-2.7,0-4.5,1.8-4.5,4.5v69.1
			c-9.1,2.3-15.5,10-15.5,19.5c0,10.9,9.1,20,20,20s20-9.1,20-20c0-9.5-6.8-17.3-15.5-19.5v-64.5h42.7v10.9c0,15,25,23.2,48.6,23.2
			s48.6-8.2,48.6-23.2v-10.9h42.7v64.5c-9.1,2.3-15.5,10-15.5,19.5c0,10.9,9.1,20,20,20c10.9,0,20-9.1,20-20
			c0-9.5-6.8-17.3-15.5-19.5v-69.1c0-2.7-1.8-4.5-4.5-4.5h-46.8c0-1.4,0-22.7,0-22.3h52.3v11.8c0,2.7,1.8,4.5,4.5,4.5h35.5
			c2.7,0,4.5-1.8,4.5-4.5v-33.2c0-2.7-1.8-4.5-4.5-4.5h-35.5c-2.7,0-4.5,1.8-4.5,4.5v11.8h-52.3c0-3.2,0-36.8,0-34.5h47.3
			c2.7,0,4.5-1.8,4.5-4.5V43.2c9.1-2.3,15.5-10,15.5-19.5c0-10.9-9.1-20-20-20s-20,9.1-20,20c0,9.5,6.8,17.3,15.5,19.5v64.5h-42.7
			V96.8c0-15-25-23.2-48.6-23.2s-48.6,8.2-48.6,23.2v10.9H60.9V43.2c9.1-2.3,15.5-10,15.5-19.5c0-10.9-9.1-20-20-20s-20,9.1-20,20
			c0,9.5,6.8,17.3,15.5,19.5v69.1c0,2.7,1.8,4.5,4.5,4.5h47.3c0,1.4,0,35.9,0,34.5H46.8v-11.8c0-2.7-1.8-4.5-4.5-4.5H6.8
			c-2.7,0-4.5,1.8-4.5,4.5v33.2C2.3,175.5,4.1,177.3,6.8,177.3z M66.8,276.4c0,5.9-5,10.9-10.9,10.9s-10.9-5-10.9-10.9
			c0-5.9,5-10.9,10.9-10.9C61.8,265,66.8,270,66.8,276.4z M259.1,276.4c0,5.9-5,10.9-10.9,10.9c-5.9,0-10.9-5-10.9-10.9
			c0-5.9,5-10.9,10.9-10.9C254.1,265,259.1,270,259.1,276.4z M262.3,144.1h26.4v24.1h-26.4V144.1z M237.3,23.6
			c0-5.9,5-10.9,10.9-10.9c5.9,0,10.9,5,10.9,10.9s-5,10.9-10.9,10.9C242.3,35,237.3,30,237.3,23.6z M45,23.6
			c0-5.9,5-10.9,10.9-10.9s10.9,5,10.9,10.9s-5,10.9-10.9,10.9C50,35,45,30,45,23.6z M152.3,120.5c26.8,0,39.1-9.1,39.5-9.1v21.4
			c0,5.9-15.5,14.1-39.5,14.1s-39.5-8.2-39.5-14.1v-21.4C112.7,111.4,125.5,120.5,152.3,120.5z M152.3,155.5
			c12.7,0,29.1-2.7,39.5-9.1c0,0.9,0,22.3,0,21.4c0,5.9-15.5,14.1-39.5,14.1s-39.5-8.2-39.5-14.1c0-0.9,0-21.8,0-21.4
			C122.7,153.2,139.5,155.5,152.3,155.5z M191.8,202.7c0,5.9-15.5,14.1-39.5,14.1s-39.5-8.2-39.5-14.1v-21.4
			c10.5,6.8,27.3,9.1,39.5,9.1c12.7,0,29.5-2.7,39.5-9.1V202.7z M152.3,83.2c24.1,0,39.5,8.2,39.5,14.1s-15.5,14.1-39.5,14.1
			s-39.5-8.2-39.5-14.1S127.7,83.2,152.3,83.2z M11.4,144.1h26.4v24.1H11.4V144.1z"/>
	</g>
</g>
</svg>
