<?xml version="1.0" encoding="utf-8"?>
<!-- Generator: Adobe Illustrator 23.0.1, SVG Export Plug-In . SVG Version: 6.00 Build 0)  -->
<svg version="1.1" id="Calque_1" xmlns="http://www.w3.org/2000/svg" xmlns:xlink="http://www.w3.org/1999/xlink" x="0px" y="0px"
	 viewBox="0 0 300 300" style="enable-background:new 0 0 300 300;" xml:space="preserve">
<style type="text/css">
	.st0{fill:#FFFFFF;}
	.st1{fill-rule:evenodd;clip-rule:evenodd;fill:#114D74;}
</style>
<g>
	<rect class="st0" width="300" height="300"/>
</g>
<g xmlns:cc="http://creativecommons.org/ns#" xmlns:dc="http://purl.org/dc/elements/1.1/" xmlns:inkscape="http://www.inkscape.org/namespaces/inkscape" xmlns:rdf="http://www.w3.org/1999/02/22-rdf-syntax-ns#" xmlns:sodipodi="http://sodipodi.sourceforge.net/DTD/sodipodi-0.dtd" xmlns:svg="http://www.w3.org/2000/svg">
	<g transform="translate(0,-1027.3622)">
		<g transform="translate(4.499,-4.49899)">
			<path class="st1" d="M145.5,1031.9c-82.8,0-150,67.2-150,150s67.2,150,150,150s150-67.2,150-150S228.3,1031.9,145.5,1031.9z
				 M91.5,1116h84.1l35.9,35.9v108h-6c-36,0-72,0-108,0h-6v-48h-24v-12h24V1116z M103.5,1127.9v72h36v-24l40,30.1l-30.4,22.8
				l-9.6,7.2v-24h-36v36c32,0,64,0,96,0v-84h-36l0.1-35.9h-60.1V1127.9z M175.5,1132.9v18.9h19L175.5,1132.9z"/>
		</g>
	</g>
</g>
</svg>
