<svg height='300px' width='300px'  fill="#114d74" xmlns="http://www.w3.org/2000/svg" xmlns:xlink="http://www.w3.org/1999/xlink" version="1.1" x="0px" y="0px" viewBox="0 0 100 100" enable-background="new 0 0 100 100" xml:space="preserve"><g><rect x="31.913" y="43.701" width="36.173" height="19.853"></rect><path d="M31.913,42.424h36.174v-5.978H31.913V42.424z M62.528,38.114l0.902-0.903l1.109,1.109l1.108-1.109l0.903,0.903   l-1.109,1.108l1.109,1.109l-0.903,0.903l-1.108-1.109l-1.109,1.109l-0.902-0.903l1.108-1.109L62.528,38.114z M32.444,38.584h16.885   v1.277H32.444V38.584z"></path><path d="M50,10c-22.092,0-40,17.908-40,40s17.908,40,40,40s40-17.908,40-40S72.092,10,50,10z M70.214,64.617   c0,0.588-0.476,1.064-1.064,1.064H30.849c-0.588,0-1.064-0.476-1.064-1.064V35.382c0-0.588,0.476-1.064,1.064-1.064h38.302   c0.587,0,1.064,0.477,1.063,1.064C70.214,35.382,70.214,64.617,70.214,64.617z"></path></g></svg>