<?xml version="1.0" encoding="utf-8"?>
<!-- Generator: Adobe Illustrator 23.0.1, SVG Export Plug-In . SVG Version: 6.00 Build 0)  -->
<svg version="1.1" id="Calque_1" xmlns="http://www.w3.org/2000/svg" xmlns:xlink="http://www.w3.org/1999/xlink" x="0px" y="0px"
	 viewBox="0 0 300 300" style="enable-background:new 0 0 300 300;" xml:space="preserve">
<style type="text/css">
	.st0{fill:#114D74;}
</style>
<g>
	<rect x="82.2" y="126.5" class="st0" width="135.6" height="72.7"/>
	<path class="st0" d="M82.2,121.8h135.6V99.9H82.2V121.8z M197,106l3.4-3.3l4.2,4.1l4.2-4.1l3.4,3.3l-4.2,4.1l4.2,4.1l-3.4,3.3
		l-4.2-4.1l-4.2,4.1l-3.4-3.3l4.2-4.1L197,106z M84.2,107.7h63.3v4.7H84.2V107.7z"/>
	<path class="st0" d="M150,3C67.2,3,0.1,68.6,0.1,149.5s67.1,146.5,150,146.5s150-65.6,150-146.5S232.9,3,150,3z M225.8,203.1
		c0,2.2-1.8,3.9-4,3.9H78.2c-2.2,0-4-1.7-4-3.9V96c0-2.2,1.8-3.9,4-3.9h143.6c2.2,0,4,1.7,4,3.9C225.8,96,225.8,203.1,225.8,203.1z"
		/>
</g>
</svg>
